<svg width="16px" height="16px" viewBox="0 0 16 16" version="1.1" xmlns="http://www.w3.org/2000/svg" xmlns:xlink="http://www.w3.org/1999/xlink">
    <!-- Generator: Sketch 39.1 (31720) - http://www.bohemiancoding.com/sketch -->
    <title>三火</title>
    <desc>Created with Sketch.</desc>
    <defs></defs>
    <g id="Page-1" stroke="none" stroke-width="1" fill="none" fill-rule="evenodd">
        <g id="Desktop-HD" transform="translate(-214.000000, -109.000000)" fill="#EA4335">
            <g id="三火" transform="translate(214.000000, 109.000000)">
                <g id="图层_1">
                    <path d="M13.4,1.6 C11.6,2.2 10.9,3.4 10.8,4.6 L10.8,4.6 C10.8,4.6 10.8,4.9 10.7,5.1 C10.5,5.2 10.4,5.1 10.1,4.9 C9.5,3.9 9.1,2.5 9.1,-8.8817842e-16 C5.1,1.6 4.3,4.5 4.3,6.3 L4.3,6.3 C4.3,6.9 3.8,6.8 3.7,6.8 C3.3,6.5 3.1,6.1 3.1,6.1 L3.1,6 C2.9,4.9 3.1,4 3.1,4 C1.6,4.8 0.9,6.9 0.9,8.6 C0.9,12.7 4.1,16 8,16 C11.9,16 15.1,13.1 15.1,9 C15.1,6.4 13.4,4.9 13.4,1.6 L13.4,1.6 Z" id="XMLID_1498_"></path>
                </g>
            </g>
        </g>
    </g>
</svg>