<svg id="svg_canvas" data-noselect="" viewBox="0 0 800 600" width="200" height="250" preserveAspectRatio="none" version="1.1" xmlns="http://www.w3.org/2000/svg" style="background: rgb(255, 255, 255);"> <g id="shape_M4NZizvWLA" transform="translate(344.0261000721359,186.4809366861979) rotate(0,132.5,67.58984375) scale(1,1)" filter="" style="cursor: move; opacity: 1;"><g><svg xmlns="http://www.w3.org/2000/svg" version="1.1" xmlns:xlink="http://www.w3.org/1999/xlink" overflow="hidden" style="top:0; left: 0" width="265" height="135.1796875" viewBox="0 0 265 135.1796875" preserveAspectRatio="none" data-parent="shape_M4NZizvWLA"><rect fill="rgba(0,0,0,0)" width="265" height="135.1796875"></rect> <rect opacity="0"></rect><g transform="translate(0 0)" data-width="260"><path fill="rgb(4, 123, 248)" d="M10.99-43.13L25.29-43.13L25.29-43.13Q25.29-32.61 23.99-23.51L23.99-23.51L23.99-23.51Q27.06-18.20 31.31-14.42L31.31-14.42L31.31-49.75L5.08-49.75L5.08-58.14L26.11-58.14L26.11-74.21L7.80-74.21L7.80-82.71L26.11-82.71L26.11-96.54L40.65-96.54L40.65-82.71L58.85-82.71L58.85-74.21L40.65-74.21L40.65-58.14L61.68-58.14L61.68-49.75L45.85-49.75L45.85-33.09L60.15-33.09L60.15-24.70L45.85-24.70L45.85-7.09L45.85-7.09Q52.94-5.08 61.92-5.08L61.92-5.08L117.69-5.08L113.67 8.15L60.50 8.15L60.50 8.15Q31.43 8.15 20.80-9.45L20.80-9.45L20.80-9.45Q16.19 5.44 9.57 10.52L9.57 10.52L3.31 5.44L3.31 5.44Q10.99-10.87 10.99-43.13L10.99-43.13ZM112.49-12.29L78.34-12.29L78.34-12.29Q72.67-12.29 68.89-16.31L68.89-16.31L68.89-16.31Q65.23-20.09 65.23-25.29L65.23-25.29L65.23-60.74L97.25-60.74L97.25-83.31L64.28-83.31L64.28-91.81L111.67-91.81L111.67-52.35L79.76-52.35L79.76-30.01L79.76-30.01Q79.76-27.53 81.53-25.88L81.53-25.88L81.53-25.88Q83.19-24.34 85.43-24.34L85.43-24.34L115.92-24.34L112.49-12.29Z" transform="translate(0 103.984375) skewX(-15)"></path><path fill="rgb(4, 123, 248)" d="M41.71 9.33L27.89 9.33L26.47 0.95L33.32 0.95L33.32 0.95Q35.69 0.95 35.69-1.54L35.69-1.54L35.69-17.72L27.89-13.23L27.89-13.23Q26.11-20.09 23.28-29.19L23.28-29.19L23.28-29.19Q21.15-3.07 10.28 10.52L10.28 10.52L3.31 6.50L3.31 6.50Q8.98-7.80 9.33-40.06L9.33-40.06L5.20-40.06L5.20-48.57L9.33-48.57L9.33-87.21L19.73-87.21L19.73-87.21Q21.98-92.76 23.63-97.84L23.63-97.84L38.99-95.71L38.99-95.71Q36.75-91.46 33.09-87.21L33.09-87.21L50.10-87.21L50.10 0.95L50.10 0.95Q50.10 4.37 47.62 6.85L47.62 6.85L47.62 6.85Q45.14 9.33 41.71 9.33L41.71 9.33ZM114.38 8.15L105.05 8.15L105.05 8.15Q99.38 8.15 95.59 4.14L95.59 4.14L95.59 4.14Q92.05 0.24 92.05-4.84L92.05-4.84L92.05-50.69L75.86-50.69L75.86-38.52L75.86-38.52Q75.86-15.83 66.17-0.47L66.17-0.47L66.17-0.47Q61.21 7.33 56.36 10.52L56.36 10.52L50.34 5.08L50.34 5.08Q61.45-9.10 61.45-39.35L61.45-39.35L61.45-59.08L106.47-59.08L106.47-9.69L106.47-9.69Q106.47-3.90 112.26-3.90L112.26-3.90L117.69-3.90L114.38 8.15ZM80.23-97.84L80.23-97.84Q89.69-93.59 95.71-84.49L95.71-84.49L88.74-80.82L115.92-80.82L115.92-72.43L53.06-72.43L53.06-80.82L81.89-80.82L81.89-80.82Q77.52-87.80 73.26-93.82L73.26-93.82L80.23-97.84ZM35.69-24.46L35.69-40.06L23.75-40.06L23.75-40.06Q23.75-36.16 23.51-32.50L23.51-32.50L28.36-35.21L28.36-35.21Q32.02-30.72 35.69-24.46L35.69-24.46ZM28.36-74.80L28.36-74.80Q32.02-70.31 35.69-64.04L35.69-64.04L35.69-78.70L23.87-78.70L23.87-72.32L28.36-74.80ZM35.69-48.57L35.69-57.31L27.89-52.82L27.89-52.82Q26.35-58.85 23.87-67.12L23.87-67.12L23.87-48.57L35.69-48.57Z" transform="translate(130 103.984375) skewX(-15)"></path></g></svg></g> <!----></g><g id="shape_tGiF7DT8Zi" transform="translate(115.6897421744356,243.67322859237825) rotate(300,60,4) scale(1,1)" filter="" style="cursor: move; opacity: 1;"><g><rect fill="rgba(0,0,0,0)" width="140" height="28" x="-10" y="-10"></rect><svg version="1.1" id="图层_1" x="0px" y="0px" width="120" height="8" viewBox="0 94 200 12" enable-background="new 0 94 200 12" xml:space="preserve" xmlns="http://www.w3.org/2000/svg" xmlns:xlink="http://www.w3.org/1999/xlink" xmlns:xml="http://www.w3.org/XML/1998/namespace" preserveAspectRatio="none" data-parent="shape_tGiF7DT8Zi">
  <rect y="94" fill="#047bf8" width="200" height="12" class=""></rect>
</svg></g> <!----></g><g id="shape_kgd4SMyKmL" transform="translate(230.2222430889423,242.7823486328125) rotate(60,60,4) scale(1,1)" filter="" style="cursor: move; opacity: 1;"><g><rect fill="rgba(0,0,0,0)" width="140" height="28" x="-10" y="-10"></rect><svg version="1.1" id="图层_1" x="0px" y="0px" width="120" height="8" viewBox="0 94 200 12" enable-background="new 0 94 200 12" xml:space="preserve" xmlns="http://www.w3.org/2000/svg" xmlns:xlink="http://www.w3.org/1999/xlink" xmlns:xml="http://www.w3.org/XML/1998/namespace" preserveAspectRatio="none" data-parent="shape_kgd4SMyKmL">
  <rect y="94" fill="#047bf8" width="200" height="12" class=""></rect>
</svg></g> <!----></g><g id="shape_pSUuiXB6DV" transform="translate(177.99996978861833,236.78220451635664) rotate(60,50,4) scale(1,1)" filter="" style="cursor: move; opacity: 1;"><g><rect fill="rgba(0,0,0,0)" width="120" height="28" x="-10" y="-10"></rect><svg version="1.1" id="图层_1" x="0px" y="0px" width="100" height="8" viewBox="0 94 200 12" enable-background="new 0 94 200 12" xml:space="preserve" xmlns="http://www.w3.org/2000/svg" xmlns:xlink="http://www.w3.org/1999/xlink" xmlns:xml="http://www.w3.org/XML/1998/namespace" preserveAspectRatio="none" data-parent="shape_pSUuiXB6DV">
  <rect y="94" fill="#047bf8" width="200" height="12" class=""></rect>
</svg></g> <!----></g><g id="shape_ycrSbVuioK" transform="translate(187.6178897104933,235.78220451635661) rotate(300,50,4) scale(1,1)" filter="" style="cursor: move; opacity: 1;"><g><rect fill="rgba(0,0,0,0)" width="120" height="28" x="-10" y="-10"></rect><svg version="1.1" id="图层_1" x="0px" y="0px" width="100" height="8" viewBox="0 94 200 12" enable-background="new 0 94 200 12" xml:space="preserve" xmlns="http://www.w3.org/2000/svg" xmlns:xlink="http://www.w3.org/1999/xlink" xmlns:xml="http://www.w3.org/XML/1998/namespace" preserveAspectRatio="none" data-parent="shape_ycrSbVuioK">
  <rect y="94" fill="#047bf8" width="200" height="12" class=""></rect>
</svg></g> <!----></g><g id="shape_vjUeo39y4j" transform="translate(316,291.8080072817595) rotate(0,10,4) scale(1,1)" filter="" style="cursor: move; opacity: 1;"><g><rect fill="rgba(0,0,0,0)" width="40" height="28" x="-10" y="-10"></rect><svg version="1.1" id="图层_1" x="0px" y="0px" width="20" height="8" viewBox="0 94 200 12" enable-background="new 0 94 200 12" xml:space="preserve" xmlns="http://www.w3.org/2000/svg" xmlns:xlink="http://www.w3.org/1999/xlink" xmlns:xml="http://www.w3.org/XML/1998/namespace" preserveAspectRatio="none" data-parent="shape_vjUeo39y4j">
  <rect y="94" fill="#047bf8" width="200" height="12" class=""></rect>
</svg></g> <!----></g><g id="shape_R6Q1ZUniCR" transform="translate(129.51979417067307,292.4160578067486) rotate(0,10,4.391972468449519) scale(1,1)" filter="" style="cursor: move; opacity: 1;"><g><rect fill="rgba(0,0,0,0)" width="40" height="28.78394493689904" x="-10" y="-10"></rect><svg version="1.1" id="图层_1" x="0px" y="0px" width="20" height="8.783944936899038" viewBox="0 94 200 12" enable-background="new 0 94 200 12" xml:space="preserve" xmlns="http://www.w3.org/2000/svg" xmlns:xlink="http://www.w3.org/1999/xlink" xmlns:xml="http://www.w3.org/XML/1998/namespace" preserveAspectRatio="none" data-parent="shape_R6Q1ZUniCR">
  <rect y="94" fill="#047bf8" width="200" height="12" class=""></rect>
</svg></g> <!----></g> <g id="rectBox"><rect id="rect_shape_M4NZizvWLA" width="265" height="135.1796875" transform="translate(344.0261000721359,186.4809366861979) rotate(0,132.5,67.58984375) scale(1,1)" fill="none" stroke="rgba(0,0,0,0)" class="box_trans"></rect><rect id="rect_shape_ZTNTHNpdqe" width="210" height="36.211279999999995" transform="translate(117.99999188279244,220.23118532245687) rotate(0,105,18.105639999999998) scale(1,1)" fill="none" stroke="rgba(0,0,0,0)" class="box_trans"></rect><rect id="rect_shape_tGiF7DT8Zi" width="120" height="8" transform="translate(115.6897421744356,243.67322859237825) rotate(300,60,4) scale(1,1)" fill="none" stroke="rgba(0,0,0,0)" class="box_trans"></rect><rect id="rect_shape_kgd4SMyKmL" width="120" height="8" transform="translate(230.2222430889423,242.7823486328125) rotate(60,60,4) scale(1,1)" fill="none" stroke="rgba(0,0,0,0)" class="box_trans"></rect><rect id="rect_shape_pSUuiXB6DV" width="100" height="8" transform="translate(177.99996978861833,236.78220451635664) rotate(60,50,4) scale(1,1)" fill="none" stroke="rgba(0,0,0,0)" class="box_trans"></rect><rect id="rect_shape_ycrSbVuioK" width="100" height="8" transform="translate(187.6178897104933,235.78220451635661) rotate(300,50,4) scale(1,1)" fill="none" stroke="rgba(0,0,0,0)" class="box_trans"></rect><rect id="rect_shape_vjUeo39y4j" width="20" height="8" transform="translate(316,291.8080072817595) rotate(0,10,4) scale(1,1)" fill="none" stroke="rgba(0,0,0,0)" class="box_trans"></rect><rect id="rect_shape_R6Q1ZUniCR" width="20" height="8.783944936899038" transform="translate(129.51979417067307,292.4160578067486) rotate(0,10,4.391972468449519) scale(1,1)" fill="none" stroke="rgba(0,0,0,0)" class="box_trans"></rect></g> <!----></svg>