<svg xmlns="http://www.w3.org/2000/svg" xmlns:xlink="http://www.w3.org/1999/xlink" class="icon" viewBox="0 0 1024 1024" id="icon-www"><path d="M197.328 786.896a381.336 94.504 0 1 0 762.672 0 381.336 94.504 0 1 0-762.672 0Z" fill="#B8CBCD" p-id="6003"></path><path d="M949.328 561.4a40 40 0 0 1-40 40h-744a40 40 0 0 1-40-40v-272a40 40 0 0 1 40-40h744a40 40 0 0 1 40 40v272z" fill="#FFFFFF" p-id="6004"></path><path d="M909.328 617.4h-744c-30.88 0-56-25.128-56-56v-272c0-30.88 25.12-56 56-56h744c30.872 0 56 25.12 56 56v272c0 30.872-25.128 56-56 56z m-744-352c-13.232 0-24 10.768-24 24v272c0 13.232 10.768 24 24 24h744c13.232 0 24-10.768 24-24v-272c0-13.232-10.768-24-24-24h-744z" fill="#324654" p-id="6005"></path><path d="M279.24 873.4L437.328 512.96 83.208 664.72l101.176 25.296-88.528 88.528 75.888 75.888 88.528-88.536z" fill="#B9E3ED" p-id="6006"></path><path d="M279.248 889.4a15.984 15.984 0 0 1-15.76-13.224l-13.632-77.232-66.8 66.8c-6 6-16.624 6-22.624 0l-75.88-75.88a16 16 0 0 1 0-22.624l68.544-68.552-73.76-18.44a15.992 15.992 0 0 1-2.416-30.224l354.12-151.76a16 16 0 0 1 20.952 21.136L293.904 879.84a16.04 16.04 0 0 1-14.656 9.56zM118.488 778.544l53.256 53.256 77.216-77.216a15.992 15.992 0 0 1 27.072 8.536l9.784 55.464 120.592-274.96L133.168 660.72l55.096 13.776a16 16 0 0 1 7.432 26.832l-77.208 77.216z" fill="#324654" p-id="6007"></path><path d="M281.92 897.4a24.016 24.016 0 0 1-23.648-19.824l-10.96-62.112-55.936 55.936c-9 9-24.936 9-33.936 0l-75.88-75.88a23.984 23.984 0 0 1 0-33.936l58.552-58.56L80.064 688a24.016 24.016 0 0 1-4.744-44.84l57.632-28.232A63.992 63.992 0 0 1 104 561.4v-272c0-35.288 28.712-64 64-64h744c35.288 0 64 28.712 64 64v272c0 35.288-28.712 64-64 64H430.096l-126.624 258.552a24 24 0 0 1-21.552 13.448zM132.472 778.544l41.944 41.944 71.56-71.56a23.984 23.984 0 0 1 40.6 12.8l6.168 34.976 100.824-205.856a24.016 24.016 0 0 1 21.552-13.448H912c8.824 0 16-7.176 16-16v-272c0-8.824-7.176-16-16-16H168c-8.824 0-16 7.176-16 16v272c0 8.824 7.176 16 16 16h47.128a24 24 0 0 1 10.552 45.552l-70.248 34.416 37.44 9.368a23.984 23.984 0 1 1 11.152 40.248l-71.552 71.56z" fill="#324654" p-id="6008"></path><path d="M229.328 366.32l37.448 131.08L310.48 366.32l37.432 131.08 43.704-131.08" fill="#FFFFFF" p-id="6009"></path><path d="M347.92 513.4h-0.352a16.008 16.008 0 0 1-15.04-11.608l-23.232-81.344-27.344 82.016c-2.224 6.648-8.568 10.936-15.528 10.936a16 16 0 0 1-15.032-11.6L213.944 370.72a16 16 0 0 1 30.76-8.8l23.24 81.352 27.344-82.016c2.216-6.656 8.368-10.912 15.528-10.936 7.016 0.16 13.112 4.856 15.04 11.608l23.232 81.344 27.344-82.016a16 16 0 0 1 30.36 10.12l-43.704 131.08a15.992 15.992 0 0 1-15.168 10.944z" fill="#324654" p-id="6010"></path><path d="M453.328 366.32l37.448 131.08L534.48 366.32l37.432 131.08 43.704-131.08" fill="#FFFFFF" p-id="6011"></path><path d="M571.912 513.4h-0.352a16.008 16.008 0 0 1-15.032-11.608l-23.232-81.344-27.344 82.016c-2.224 6.648-8.712 10.936-15.528 10.936a16 16 0 0 1-15.032-11.6L437.944 370.72a16 16 0 1 1 30.768-8.8l23.24 81.352 27.344-82.016c2.216-6.656 8.464-10.912 15.528-10.936 7.016 0.16 13.112 4.856 15.04 11.608l23.232 81.344 27.344-82.016a16 16 0 0 1 30.36 10.12l-43.704 131.08a16.008 16.008 0 0 1-15.184 10.944z" fill="#324654" p-id="6012"></path><path d="M663.616 366.32l37.448 131.08 43.704-131.08 37.432 131.08 43.704-131.08" fill="#FFFFFF" p-id="6013"></path><path d="M782.2 513.4h-0.352a16 16 0 0 1-15.032-11.608l-23.232-81.344-27.344 82.008c-2.216 6.648-8.536 10.856-15.528 10.936a16 16 0 0 1-15.032-11.6L648.232 370.72a16 16 0 1 1 30.768-8.8l23.24 81.352 27.344-82.016a15.888 15.888 0 0 1 15.528-10.936 16 16 0 0 1 15.032 11.608l23.232 81.344 27.344-82.016a16 16 0 0 1 30.36 10.12l-43.704 131.08a15.992 15.992 0 0 1-15.176 10.944z" fill="#324654" p-id="6014"></path><path d="M865.904 489.4m-16 0a16 16 0 1 0 32 0 16 16 0 1 0-32 0Z" fill="#324654" p-id="6015"></path></svg>