<svg width="14px" height="16px" viewBox="0 0 14 16" version="1.1" xmlns="http://www.w3.org/2000/svg" xmlns:xlink="http://www.w3.org/1999/xlink">
    <title>二火</title>
    <desc>Created with Sketch.</desc>
    <defs></defs>
    <g id="Page-1" stroke="none" stroke-width="1" fill="none" fill-rule="evenodd">
        <g id="Desktop-HD" transform="translate(-176.000000, -109.000000)" fill="#F4523B">
            <g id="二火" transform="translate(176.000000, 109.000000)">
                <g id="图层_1">
                    <path d="M13.5,9.1 C13.4,4.5 8.2,3.1 8.1,0 C5.6,0.8 4,3.8 4.4,7.4 L4.4,7.4 C4.4,7.6 4.4,7.8 4.5,8 C4.5,8.3 4.5,8.5 4.2,8.6 C3.3,9 2.9,7.9 2.7,7.2 C2.6,6.8 2.5,5.8 2.6,5.1 C2.6,5 2.4,4.9 2.3,5 C1.6,5.8 0.7,7.1 0.5,9.1 L0.5,9.5 C0.5,9.5 0.5,9.5 0.5,9.6 L0.5,9.6 C0.5,10.2 0.6,10.8 0.8,11.3 C1.6,14.2 4.4,16.2 7.6,15.9 C10.7,15.6 13.1,13.1 13.5,10 L13.5,9.1 L13.5,9.1 Z" id="XMLID_1827_"></path>
                </g>
            </g>
        </g>
    </g>
</svg>